<svg width="25" height="25" viewBox="0 0 25 25" fill="none" xmlns="http://www.w3.org/2000/svg">
<path d="M12.1094 0C5.41992 0 0 5.41992 0 12.1094C0 18.7988 5.41992 24.2188 12.1094 24.2188C18.7988 24.2188 24.2188 18.7988 24.2188 12.1094C24.2188 5.41992 18.7988 0 12.1094 0ZM17.7734 14.2578H12.1094V17.7197C12.1094 18.2422 11.4746 18.5059 11.1084 18.1348L5.52734 12.5244C5.29785 12.2949 5.29785 11.9287 5.52734 11.6992L11.1084 6.08398C11.4795 5.71289 12.1094 5.97656 12.1094 6.49902V9.96094H17.7734C18.0957 9.96094 18.3594 10.2246 18.3594 10.5469V13.6719C18.3594 13.9941 18.0957 14.2578 17.7734 14.2578Z" fill="black"/>
</svg>
